<svg width="16" height="16" viewBox="0 0 16 16" fill="none" xmlns="http://www.w3.org/2000/svg">
<g id="close">
<path id="Vector" d="M9.05997 7.99984L12.0287 5.03109C12.1696 4.89044 12.2489 4.69958 12.249 4.5005C12.2492 4.30142 12.1703 4.11042 12.0297 3.96952C11.889 3.82863 11.6982 3.74937 11.4991 3.7492C11.3 3.74902 11.109 3.82794 10.9681 3.96859L7.99935 6.93734L5.0306 3.96859C4.8897 3.82769 4.69861 3.74854 4.49935 3.74854C4.30009 3.74854 4.10899 3.82769 3.9681 3.96859C3.8272 4.10948 3.74805 4.30058 3.74805 4.49984C3.74805 4.69909 3.8272 4.89019 3.9681 5.03109L6.93685 7.99984L3.9681 10.9686C3.8272 11.1095 3.74805 11.3006 3.74805 11.4998C3.74805 11.6991 3.8272 11.8902 3.9681 12.0311C4.10899 12.172 4.30009 12.2511 4.49935 12.2511C4.69861 12.2511 4.8897 12.172 5.0306 12.0311L7.99935 9.06234L10.9681 12.0311C11.109 12.172 11.3001 12.2511 11.4993 12.2511C11.6986 12.2511 11.8897 12.172 12.0306 12.0311C12.1715 11.8902 12.2506 11.6991 12.2506 11.4998C12.2506 11.3006 12.1715 11.1095 12.0306 10.9686L9.05997 7.99984Z" fill="white" fill-opacity="0.8"/>
</g>
</svg>
