<svg xmlns="http://www.w3.org/2000/svg" width="19.523" height="14.641" viewBox="0 0 19.523 14.641">
  <g id="visibility_1_" data-name="visibility (1)" transform="translate(0 -64.008)">
    <g id="Group_8478" data-name="Group 8478" transform="translate(7.342 68.909)">
      <g id="Group_8477" data-name="Group 8477">
        <path id="Path_7688" data-name="Path 7688" d="M197.27,192.661a.407.407,0,0,0-.575.575,2.44,2.44,0,1,1-3.451,3.451.407.407,0,1,0-.575.575,3.253,3.253,0,1,0,4.6-4.6Z" transform="translate(-192.55 -192.542)" fill="#262626"/>
      </g>
    </g>
    <g id="Group_8480" data-name="Group 8480" transform="translate(6.507 68.075)">
      <g id="Group_8479" data-name="Group 8479" transform="translate(0 0)">
        <path id="Path_7689" data-name="Path 7689" d="M174.489,170.715a3.221,3.221,0,0,0-3.821,3.2,3.184,3.184,0,0,0,.057.567.407.407,0,0,0,.4.336.36.36,0,0,0,.072-.007.407.407,0,0,0,.329-.471,2.358,2.358,0,0,1-.044-.425,2.411,2.411,0,0,1,2.866-2.4.406.406,0,1,0,.142-.8Z" transform="translate(-170.668 -170.659)" fill="#262626"/>
      </g>
    </g>
    <g id="Group_8482" data-name="Group 8482" transform="translate(5.087 66.771)">
      <g id="Group_8481" data-name="Group 8481" transform="translate(0 0)">
        <path id="Path_7690" data-name="Path 7690" d="M147.773,140.756a19.758,19.758,0,0,0-5.327-4.249.407.407,0,1,0-.373.723,19.114,19.114,0,0,1,4.844,3.789c-.97,1.05-4.785,4.881-8.808,4.881a9.378,9.378,0,0,1-4.09-.98.406.406,0,0,0-.353.732,10.171,10.171,0,0,0,4.443,1.062c5.012,0,9.477-5.209,9.665-5.431A.406.406,0,0,0,147.773,140.756Z" transform="translate(-133.435 -136.461)" fill="#262626"/>
      </g>
    </g>
    <g id="Group_8484" data-name="Group 8484" transform="translate(0 65.634)">
      <g id="Group_8483" data-name="Group 8483" transform="translate(0 0)">
        <path id="Path_7691" data-name="Path 7691" d="M12.43,107.128a8.4,8.4,0,0,0-2.669-.469c-5.012,0-9.477,5.209-9.665,5.431a.407.407,0,0,0-.023.5A15.1,15.1,0,0,0,3.8,116.123a.4.4,0,0,0,.563-.115.406.406,0,0,0-.114-.563,14.874,14.874,0,0,1-3.321-3.071c.936-1.017,4.777-4.9,8.829-4.9a7.614,7.614,0,0,1,2.409.425.4.4,0,0,0,.515-.255A.406.406,0,0,0,12.43,107.128Z" transform="translate(0 -106.659)" fill="#262626"/>
      </g>
    </g>
    <g id="Group_8486" data-name="Group 8486" transform="translate(2.44 64.008)">
      <g id="Group_8485" data-name="Group 8485" transform="translate(0 0)">
        <path id="Path_7692" data-name="Path 7692" d="M78.519,64.127a.407.407,0,0,0-.575,0L64.115,77.956a.407.407,0,0,0,.575.575L78.519,64.7A.407.407,0,0,0,78.519,64.127Z" transform="translate(-63.996 -64.008)" fill="#262626"/>
      </g>
    </g>
  </g>
</svg>
